<mxfile host="app.diagrams.net" agent="Mozilla/5.0 (Windows NT 10.0; Win64; x64) AppleWebKit/537.36 (KHTML, like Gecko) Chrome/133.0.0.0 Safari/537.36" version="26.0.14">
  <diagram name="Page-1" id="_-PjxXlLiEYtxVikaqa9">
    <mxGraphModel dx="1723" dy="757" grid="1" gridSize="10" guides="1" tooltips="1" connect="1" arrows="1" fold="1" page="1" pageScale="1" pageWidth="827" pageHeight="1169" math="0" shadow="0">
      <root>
        <mxCell id="0" />
        <mxCell id="1" parent="0" />
        <mxCell id="Ac6u8HIOzdc2s1zmus9J-1" value="" style="whiteSpace=wrap;html=1;aspect=fixed;" parent="1" vertex="1">
          <mxGeometry x="200" y="80" width="1480" height="1480" as="geometry" />
        </mxCell>
        <mxCell id="Ac6u8HIOzdc2s1zmus9J-2" value="&lt;font style=&quot;font-size: 18px;&quot;&gt;Lost &amp;amp; found platform&lt;/font&gt;" style="text;html=1;align=center;verticalAlign=middle;whiteSpace=wrap;rounded=0;" parent="1" vertex="1">
          <mxGeometry x="847" y="90" width="220" height="20" as="geometry" />
        </mxCell>
        <mxCell id="Ac6u8HIOzdc2s1zmus9J-3" value="utilisateur" style="shape=umlActor;verticalLabelPosition=bottom;verticalAlign=top;html=1;outlineConnect=0;" parent="1" vertex="1">
          <mxGeometry x="100" y="380" width="70" height="120" as="geometry" />
        </mxCell>
        <mxCell id="Ac6u8HIOzdc2s1zmus9J-4" value="" style="ellipse;whiteSpace=wrap;html=1;" parent="1" vertex="1">
          <mxGeometry x="500" y="180" width="120" height="80" as="geometry" />
        </mxCell>
        <mxCell id="Ac6u8HIOzdc2s1zmus9J-5" value="&lt;font style=&quot;font-size: 14px;&quot;&gt;Consulter les annonces&lt;/font&gt;" style="text;html=1;align=center;verticalAlign=middle;whiteSpace=wrap;rounded=0;" parent="1" vertex="1">
          <mxGeometry x="510" y="205" width="100" height="30" as="geometry" />
        </mxCell>
        <mxCell id="Ac6u8HIOzdc2s1zmus9J-10" value="" style="ellipse;whiteSpace=wrap;html=1;" parent="1" vertex="1">
          <mxGeometry x="500" y="290" width="120" height="80" as="geometry" />
        </mxCell>
        <mxCell id="Ac6u8HIOzdc2s1zmus9J-11" value="Rechercher un objet" style="text;html=1;align=center;verticalAlign=middle;whiteSpace=wrap;rounded=0;" parent="1" vertex="1">
          <mxGeometry x="510" y="315" width="100" height="30" as="geometry" />
        </mxCell>
        <mxCell id="Ac6u8HIOzdc2s1zmus9J-12" value="" style="ellipse;whiteSpace=wrap;html=1;" parent="1" vertex="1">
          <mxGeometry x="500" y="390" width="120" height="80" as="geometry" />
        </mxCell>
        <mxCell id="Ac6u8HIOzdc2s1zmus9J-13" value="Filtrer les annonces" style="text;html=1;align=center;verticalAlign=middle;whiteSpace=wrap;rounded=0;" parent="1" vertex="1">
          <mxGeometry x="510" y="415" width="100" height="30" as="geometry" />
        </mxCell>
        <mxCell id="Ac6u8HIOzdc2s1zmus9J-14" value="" style="ellipse;whiteSpace=wrap;html=1;" parent="1" vertex="1">
          <mxGeometry x="500" y="490" width="120" height="80" as="geometry" />
        </mxCell>
        <mxCell id="Ac6u8HIOzdc2s1zmus9J-15" value="Publier une annonce" style="text;html=1;align=center;verticalAlign=middle;whiteSpace=wrap;rounded=0;" parent="1" vertex="1">
          <mxGeometry x="510" y="515" width="100" height="30" as="geometry" />
        </mxCell>
        <mxCell id="Ac6u8HIOzdc2s1zmus9J-16" value="" style="ellipse;whiteSpace=wrap;html=1;" parent="1" vertex="1">
          <mxGeometry x="500" y="585" width="120" height="80" as="geometry" />
        </mxCell>
        <mxCell id="Ac6u8HIOzdc2s1zmus9J-17" value="Commenter une annonce" style="text;html=1;align=center;verticalAlign=middle;whiteSpace=wrap;rounded=0;" parent="1" vertex="1">
          <mxGeometry x="510" y="610" width="100" height="30" as="geometry" />
        </mxCell>
        <mxCell id="Ac6u8HIOzdc2s1zmus9J-18" value="" style="ellipse;whiteSpace=wrap;html=1;" parent="1" vertex="1">
          <mxGeometry x="500" y="690" width="120" height="80" as="geometry" />
        </mxCell>
        <mxCell id="Ac6u8HIOzdc2s1zmus9J-19" value="Consulter les statistiques générales" style="text;html=1;align=center;verticalAlign=middle;whiteSpace=wrap;rounded=0;" parent="1" vertex="1">
          <mxGeometry x="510" y="715" width="100" height="30" as="geometry" />
        </mxCell>
        <mxCell id="Ac6u8HIOzdc2s1zmus9J-21" value="" style="endArrow=none;html=1;rounded=0;exitX=0.5;exitY=0.5;exitDx=0;exitDy=0;exitPerimeter=0;entryX=0;entryY=0.5;entryDx=0;entryDy=0;" parent="1" source="Ac6u8HIOzdc2s1zmus9J-3" target="Ac6u8HIOzdc2s1zmus9J-4" edge="1">
          <mxGeometry width="50" height="50" relative="1" as="geometry">
            <mxPoint x="530" y="270" as="sourcePoint" />
            <mxPoint x="580" y="220" as="targetPoint" />
          </mxGeometry>
        </mxCell>
        <mxCell id="Ac6u8HIOzdc2s1zmus9J-22" value="" style="endArrow=none;html=1;rounded=0;exitX=0.5;exitY=0.5;exitDx=0;exitDy=0;exitPerimeter=0;entryX=-0.006;entryY=0.635;entryDx=0;entryDy=0;entryPerimeter=0;" parent="1" source="Ac6u8HIOzdc2s1zmus9J-3" target="Ac6u8HIOzdc2s1zmus9J-10" edge="1">
          <mxGeometry width="50" height="50" relative="1" as="geometry">
            <mxPoint x="295" y="455" as="sourcePoint" />
            <mxPoint x="510" y="230" as="targetPoint" />
          </mxGeometry>
        </mxCell>
        <mxCell id="Ac6u8HIOzdc2s1zmus9J-23" value="" style="endArrow=none;html=1;rounded=0;exitX=0.5;exitY=0.5;exitDx=0;exitDy=0;exitPerimeter=0;entryX=0.031;entryY=0.318;entryDx=0;entryDy=0;entryPerimeter=0;" parent="1" source="Ac6u8HIOzdc2s1zmus9J-3" target="Ac6u8HIOzdc2s1zmus9J-12" edge="1">
          <mxGeometry width="50" height="50" relative="1" as="geometry">
            <mxPoint x="295" y="455" as="sourcePoint" />
            <mxPoint x="509" y="351" as="targetPoint" />
          </mxGeometry>
        </mxCell>
        <mxCell id="Ac6u8HIOzdc2s1zmus9J-24" value="" style="endArrow=none;html=1;rounded=0;exitX=0.5;exitY=0.5;exitDx=0;exitDy=0;exitPerimeter=0;entryX=0.045;entryY=0.246;entryDx=0;entryDy=0;entryPerimeter=0;" parent="1" source="Ac6u8HIOzdc2s1zmus9J-3" target="Ac6u8HIOzdc2s1zmus9J-14" edge="1">
          <mxGeometry width="50" height="50" relative="1" as="geometry">
            <mxPoint x="295" y="455" as="sourcePoint" />
            <mxPoint x="514" y="425" as="targetPoint" />
          </mxGeometry>
        </mxCell>
        <mxCell id="Ac6u8HIOzdc2s1zmus9J-25" value="" style="endArrow=none;html=1;rounded=0;exitX=0.5;exitY=0.5;exitDx=0;exitDy=0;exitPerimeter=0;entryX=0.045;entryY=0.247;entryDx=0;entryDy=0;entryPerimeter=0;" parent="1" source="Ac6u8HIOzdc2s1zmus9J-3" target="Ac6u8HIOzdc2s1zmus9J-16" edge="1">
          <mxGeometry width="50" height="50" relative="1" as="geometry">
            <mxPoint x="295" y="455" as="sourcePoint" />
            <mxPoint x="515" y="520" as="targetPoint" />
          </mxGeometry>
        </mxCell>
        <mxCell id="Ac6u8HIOzdc2s1zmus9J-26" value="" style="endArrow=none;html=1;rounded=0;exitX=0.5;exitY=0.5;exitDx=0;exitDy=0;exitPerimeter=0;entryX=0.083;entryY=0.375;entryDx=0;entryDy=0;entryPerimeter=0;" parent="1" source="Ac6u8HIOzdc2s1zmus9J-3" target="Ac6u8HIOzdc2s1zmus9J-18" edge="1">
          <mxGeometry width="50" height="50" relative="1" as="geometry">
            <mxPoint x="295" y="455" as="sourcePoint" />
            <mxPoint x="515" y="615" as="targetPoint" />
          </mxGeometry>
        </mxCell>
        <mxCell id="Ac6u8HIOzdc2s1zmus9J-29" value="administartion" style="shape=umlActor;verticalLabelPosition=bottom;verticalAlign=top;html=1;outlineConnect=0;" parent="1" vertex="1">
          <mxGeometry x="100" y="1175" width="70" height="110" as="geometry" />
        </mxCell>
        <mxCell id="Ac6u8HIOzdc2s1zmus9J-34" value="" style="ellipse;whiteSpace=wrap;html=1;" parent="1" vertex="1">
          <mxGeometry x="500" y="980" width="120" height="80" as="geometry" />
        </mxCell>
        <mxCell id="Ac6u8HIOzdc2s1zmus9J-35" value="Gérer les utilisateurs" style="text;html=1;align=center;verticalAlign=middle;whiteSpace=wrap;rounded=0;" parent="1" vertex="1">
          <mxGeometry x="510" y="1005" width="100" height="30" as="geometry" />
        </mxCell>
        <mxCell id="Ac6u8HIOzdc2s1zmus9J-36" value="" style="ellipse;whiteSpace=wrap;html=1;" parent="1" vertex="1">
          <mxGeometry x="500" y="1080" width="120" height="80" as="geometry" />
        </mxCell>
        <mxCell id="Ac6u8HIOzdc2s1zmus9J-37" value="Supprimer des annonces inappropriées" style="text;html=1;align=center;verticalAlign=middle;whiteSpace=wrap;rounded=0;" parent="1" vertex="1">
          <mxGeometry x="510" y="1105" width="100" height="30" as="geometry" />
        </mxCell>
        <mxCell id="Ac6u8HIOzdc2s1zmus9J-38" value="" style="ellipse;whiteSpace=wrap;html=1;" parent="1" vertex="1">
          <mxGeometry x="500" y="1190" width="120" height="80" as="geometry" />
        </mxCell>
        <mxCell id="Ac6u8HIOzdc2s1zmus9J-39" value="Modérer les commentaires" style="text;html=1;align=center;verticalAlign=middle;whiteSpace=wrap;rounded=0;" parent="1" vertex="1">
          <mxGeometry x="510" y="1215" width="100" height="30" as="geometry" />
        </mxCell>
        <mxCell id="Ac6u8HIOzdc2s1zmus9J-40" value="" style="ellipse;whiteSpace=wrap;html=1;" parent="1" vertex="1">
          <mxGeometry x="500" y="1300" width="120" height="80" as="geometry" />
        </mxCell>
        <mxCell id="Ac6u8HIOzdc2s1zmus9J-41" value="Consulter les statistiques détaillées" style="text;html=1;align=center;verticalAlign=middle;whiteSpace=wrap;rounded=0;" parent="1" vertex="1">
          <mxGeometry x="510" y="1325" width="100" height="30" as="geometry" />
        </mxCell>
        <mxCell id="Ac6u8HIOzdc2s1zmus9J-42" value="" style="ellipse;whiteSpace=wrap;html=1;" parent="1" vertex="1">
          <mxGeometry x="500" y="1400" width="120" height="80" as="geometry" />
        </mxCell>
        <mxCell id="Ac6u8HIOzdc2s1zmus9J-43" value="Gérer les catégories d’objets" style="text;html=1;align=center;verticalAlign=middle;whiteSpace=wrap;rounded=0;" parent="1" vertex="1">
          <mxGeometry x="510" y="1425" width="100" height="30" as="geometry" />
        </mxCell>
        <mxCell id="Ac6u8HIOzdc2s1zmus9J-44" value="" style="endArrow=none;html=1;rounded=0;exitX=0.5;exitY=0.5;exitDx=0;exitDy=0;exitPerimeter=0;entryX=0.005;entryY=0.71;entryDx=0;entryDy=0;entryPerimeter=0;" parent="1" source="Ac6u8HIOzdc2s1zmus9J-29" target="Ac6u8HIOzdc2s1zmus9J-34" edge="1">
          <mxGeometry width="50" height="50" relative="1" as="geometry">
            <mxPoint x="670" y="890" as="sourcePoint" />
            <mxPoint x="720" y="840" as="targetPoint" />
          </mxGeometry>
        </mxCell>
        <mxCell id="Ac6u8HIOzdc2s1zmus9J-45" value="" style="endArrow=none;html=1;rounded=0;exitX=0.5;exitY=0.5;exitDx=0;exitDy=0;exitPerimeter=0;entryX=0;entryY=0.5;entryDx=0;entryDy=0;" parent="1" source="Ac6u8HIOzdc2s1zmus9J-29" target="Ac6u8HIOzdc2s1zmus9J-36" edge="1">
          <mxGeometry width="50" height="50" relative="1" as="geometry">
            <mxPoint x="295" y="1240" as="sourcePoint" />
            <mxPoint x="511" y="1047" as="targetPoint" />
          </mxGeometry>
        </mxCell>
        <mxCell id="Ac6u8HIOzdc2s1zmus9J-46" value="" style="endArrow=none;html=1;rounded=0;exitX=0.5;exitY=0.5;exitDx=0;exitDy=0;exitPerimeter=0;entryX=0;entryY=0.5;entryDx=0;entryDy=0;" parent="1" source="Ac6u8HIOzdc2s1zmus9J-29" target="Ac6u8HIOzdc2s1zmus9J-38" edge="1">
          <mxGeometry width="50" height="50" relative="1" as="geometry">
            <mxPoint x="295" y="1240" as="sourcePoint" />
            <mxPoint x="510" y="1130" as="targetPoint" />
          </mxGeometry>
        </mxCell>
        <mxCell id="Ac6u8HIOzdc2s1zmus9J-47" value="" style="endArrow=none;html=1;rounded=0;exitX=0.5;exitY=0.5;exitDx=0;exitDy=0;exitPerimeter=0;entryX=-0.025;entryY=0.362;entryDx=0;entryDy=0;entryPerimeter=0;" parent="1" source="Ac6u8HIOzdc2s1zmus9J-29" target="Ac6u8HIOzdc2s1zmus9J-40" edge="1">
          <mxGeometry width="50" height="50" relative="1" as="geometry">
            <mxPoint x="295" y="1240" as="sourcePoint" />
            <mxPoint x="510" y="1240" as="targetPoint" />
          </mxGeometry>
        </mxCell>
        <mxCell id="Ac6u8HIOzdc2s1zmus9J-48" value="" style="endArrow=none;html=1;rounded=0;exitX=0.5;exitY=0.5;exitDx=0;exitDy=0;exitPerimeter=0;entryX=0;entryY=0;entryDx=0;entryDy=0;" parent="1" source="Ac6u8HIOzdc2s1zmus9J-29" target="Ac6u8HIOzdc2s1zmus9J-43" edge="1">
          <mxGeometry width="50" height="50" relative="1" as="geometry">
            <mxPoint x="295" y="1240" as="sourcePoint" />
            <mxPoint x="507" y="1339" as="targetPoint" />
          </mxGeometry>
        </mxCell>
        <mxCell id="Ac6u8HIOzdc2s1zmus9J-50" value="" style="ellipse;whiteSpace=wrap;html=1;" parent="1" vertex="1">
          <mxGeometry x="790" y="910" width="120" height="80" as="geometry" />
        </mxCell>
        <mxCell id="Ac6u8HIOzdc2s1zmus9J-51" value="activer" style="text;html=1;align=center;verticalAlign=middle;whiteSpace=wrap;rounded=0;" parent="1" vertex="1">
          <mxGeometry x="800" y="935" width="100" height="30" as="geometry" />
        </mxCell>
        <mxCell id="Ac6u8HIOzdc2s1zmus9J-52" value="" style="ellipse;whiteSpace=wrap;html=1;" parent="1" vertex="1">
          <mxGeometry x="790" y="1025" width="120" height="80" as="geometry" />
        </mxCell>
        <mxCell id="Ac6u8HIOzdc2s1zmus9J-53" value="desactiver" style="text;html=1;align=center;verticalAlign=middle;whiteSpace=wrap;rounded=0;" parent="1" vertex="1">
          <mxGeometry x="800" y="1050" width="100" height="30" as="geometry" />
        </mxCell>
        <mxCell id="Ac6u8HIOzdc2s1zmus9J-54" value="" style="ellipse;whiteSpace=wrap;html=1;" parent="1" vertex="1">
          <mxGeometry x="790" y="1190" width="120" height="80" as="geometry" />
        </mxCell>
        <mxCell id="Ac6u8HIOzdc2s1zmus9J-55" value="supprimer" style="text;html=1;align=center;verticalAlign=middle;whiteSpace=wrap;rounded=0;" parent="1" vertex="1">
          <mxGeometry x="800" y="1215" width="100" height="30" as="geometry" />
        </mxCell>
        <mxCell id="Ac6u8HIOzdc2s1zmus9J-56" value="" style="ellipse;whiteSpace=wrap;html=1;" parent="1" vertex="1">
          <mxGeometry x="800" y="1355" width="120" height="80" as="geometry" />
        </mxCell>
        <mxCell id="Ac6u8HIOzdc2s1zmus9J-57" value="ajouter category" style="text;html=1;align=center;verticalAlign=middle;whiteSpace=wrap;rounded=0;" parent="1" vertex="1">
          <mxGeometry x="810" y="1380" width="100" height="30" as="geometry" />
        </mxCell>
        <mxCell id="Ac6u8HIOzdc2s1zmus9J-58" value="" style="ellipse;whiteSpace=wrap;html=1;" parent="1" vertex="1">
          <mxGeometry x="800" y="1455" width="120" height="80" as="geometry" />
        </mxCell>
        <mxCell id="Ac6u8HIOzdc2s1zmus9J-59" value="supprimer category" style="text;html=1;align=center;verticalAlign=middle;whiteSpace=wrap;rounded=0;" parent="1" vertex="1">
          <mxGeometry x="810" y="1480" width="100" height="30" as="geometry" />
        </mxCell>
        <mxCell id="Ac6u8HIOzdc2s1zmus9J-60" value="" style="endArrow=none;dashed=1;html=1;rounded=0;exitX=1;exitY=0.25;exitDx=0;exitDy=0;entryX=0;entryY=0.5;entryDx=0;entryDy=0;" parent="1" source="Ac6u8HIOzdc2s1zmus9J-35" target="Ac6u8HIOzdc2s1zmus9J-50" edge="1">
          <mxGeometry width="50" height="50" relative="1" as="geometry">
            <mxPoint x="710" y="1240" as="sourcePoint" />
            <mxPoint x="760" y="1190" as="targetPoint" />
          </mxGeometry>
        </mxCell>
        <mxCell id="Ac6u8HIOzdc2s1zmus9J-61" value="" style="endArrow=none;dashed=1;html=1;rounded=0;exitX=1;exitY=0.25;exitDx=0;exitDy=0;entryX=0;entryY=1;entryDx=0;entryDy=0;" parent="1" target="Ac6u8HIOzdc2s1zmus9J-53" edge="1">
          <mxGeometry width="50" height="50" relative="1" as="geometry">
            <mxPoint x="620" y="1023" as="sourcePoint" />
            <mxPoint x="800" y="960" as="targetPoint" />
          </mxGeometry>
        </mxCell>
        <mxCell id="Ac6u8HIOzdc2s1zmus9J-62" value="" style="endArrow=none;dashed=1;html=1;rounded=0;exitX=1;exitY=0.5;exitDx=0;exitDy=0;entryX=0;entryY=0.5;entryDx=0;entryDy=0;" parent="1" source="Ac6u8HIOzdc2s1zmus9J-38" target="Ac6u8HIOzdc2s1zmus9J-54" edge="1">
          <mxGeometry width="50" height="50" relative="1" as="geometry">
            <mxPoint x="630" y="1033" as="sourcePoint" />
            <mxPoint x="810" y="1090" as="targetPoint" />
          </mxGeometry>
        </mxCell>
        <mxCell id="Ac6u8HIOzdc2s1zmus9J-63" value="" style="endArrow=none;dashed=1;html=1;rounded=0;exitX=1;exitY=0;exitDx=0;exitDy=0;entryX=0;entryY=0.5;entryDx=0;entryDy=0;" parent="1" source="Ac6u8HIOzdc2s1zmus9J-43" target="Ac6u8HIOzdc2s1zmus9J-56" edge="1">
          <mxGeometry width="50" height="50" relative="1" as="geometry">
            <mxPoint x="630" y="1240" as="sourcePoint" />
            <mxPoint x="800" y="1240" as="targetPoint" />
          </mxGeometry>
        </mxCell>
        <mxCell id="Ac6u8HIOzdc2s1zmus9J-64" value="" style="endArrow=none;dashed=1;html=1;rounded=0;exitX=1;exitY=0;exitDx=0;exitDy=0;entryX=0;entryY=1;entryDx=0;entryDy=0;" parent="1" target="Ac6u8HIOzdc2s1zmus9J-59" edge="1">
          <mxGeometry width="50" height="50" relative="1" as="geometry">
            <mxPoint x="620" y="1435" as="sourcePoint" />
            <mxPoint x="810" y="1405" as="targetPoint" />
          </mxGeometry>
        </mxCell>
        <mxCell id="Ac6u8HIOzdc2s1zmus9J-65" value="&amp;lt;&amp;lt;extend&amp;gt;&amp;gt;" style="text;html=1;align=center;verticalAlign=middle;whiteSpace=wrap;rounded=0;" parent="1" vertex="1">
          <mxGeometry x="662" y="1206" width="60" height="30" as="geometry" />
        </mxCell>
        <mxCell id="Ac6u8HIOzdc2s1zmus9J-66" value="&amp;lt;&amp;lt;extend&amp;gt;&amp;gt;" style="text;html=1;align=center;verticalAlign=middle;whiteSpace=wrap;rounded=0;rotation=-10;" parent="1" vertex="1">
          <mxGeometry x="681" y="1385" width="60" height="30" as="geometry" />
        </mxCell>
        <mxCell id="Ac6u8HIOzdc2s1zmus9J-67" value="&amp;lt;&amp;lt;extend&amp;gt;&amp;gt;" style="text;html=1;align=center;verticalAlign=middle;whiteSpace=wrap;rounded=0;rotation=15;" parent="1" vertex="1">
          <mxGeometry x="700" y="1452" width="60" height="30" as="geometry" />
        </mxCell>
        <mxCell id="Ac6u8HIOzdc2s1zmus9J-68" value="&amp;lt;&amp;lt;extend&amp;gt;&amp;gt;" style="text;html=1;align=center;verticalAlign=middle;whiteSpace=wrap;rounded=0;rotation=-20;" parent="1" vertex="1">
          <mxGeometry x="666" y="958" width="60" height="30" as="geometry" />
        </mxCell>
        <mxCell id="Ac6u8HIOzdc2s1zmus9J-69" value="&amp;lt;&amp;lt;extend&amp;gt;&amp;gt;" style="text;html=1;align=center;verticalAlign=middle;whiteSpace=wrap;rounded=0;rotation=15;" parent="1" vertex="1">
          <mxGeometry x="700" y="1031" width="60" height="30" as="geometry" />
        </mxCell>
      </root>
    </mxGraphModel>
  </diagram>
</mxfile>
